<svg width="480" height="120" viewBox="0 0 480 120" xmlns="http://www.w3.org/2000/svg"><title>Adya Logo</title><path d="M297.535 115.373V54.638L262.4 7.051a3.168 3.168 0 1 1 5.098-3.763l35.753 48.426c.403.545.62 1.204.62 1.882v55.037l9.956-8.251V53.596c0-.669.212-1.32.605-1.861l35.15-48.426a3.168 3.168 0 0 1 5.127 3.722l-34.545 47.593v47.247c0 .943-.42 1.838-1.147 2.44l-16.293 13.5c-2.065 1.712-5.19.243-5.19-2.438zM162.214 8.338v103.414a3.168 3.168 0 0 1-6.337 0V5.17a3.168 3.168 0 0 1 3.168-3.168h32.586c6.495 0 18.777 3.729 28.477 10.288 14.626 9.89 23.343 25.13 23.343 46.17 0 21.04-8.717 36.282-23.343 46.172-9.7 6.559-21.982 10.288-28.477 10.288h-16.066a3.168 3.168 0 0 1-3.168-3.168V8.338h-10.183zm288.275 104.816l-40.636-82.33-41.494 82.353a3.168 3.168 0 0 1-5.658-2.85L407.054 22.3c1.176-2.334 4.513-2.32 5.67.023l42.576 86.26h14.353L417.588 6.61a3.168 3.168 0 1 1 5.643-2.88l54.419 106.58c1.077 2.108-.454 4.609-2.821 4.609H453.33a3.168 3.168 0 0 1-2.84-1.766zm-360.36 0l-40.637-82.33-41.494 82.353a3.168 3.168 0 0 1-5.658-2.85L46.692 22.3c1.176-2.334 4.514-2.32 5.67.023l42.576 86.26h14.354L57.227 6.61a3.168 3.168 0 1 1 5.643-2.88l54.418 106.582c1.076 2.108-.455 4.609-2.822 4.609H92.97a3.168 3.168 0 0 1-2.84-1.766zm88.604-4.57h12.898c5.235 0 16.28-3.354 24.928-9.2 12.94-8.752 20.556-22.066 20.556-40.923 0-18.858-7.615-32.172-20.556-40.923-8.648-5.847-19.693-9.2-24.928-9.2h-12.898v100.246z"/></svg>
