<svg xmlns="http://www.w3.org/2000/svg" width="24" height="24" viewBox="0 0 24 24">
  <path fill="#000000" d="M20.1494355,11.5714286 L24,11.5714286 L24,13.7142857 L16.8605039,13.7142857 C16.9365318,13.9477174 16.9745455,14.2162882 16.9745455,14.52 L16.9745455,21 L14.7752727,21 L14.7752727,14.9828571 C14.7752727,14.5371406 14.6705465,14.1942869 14.4610909,13.9542857 C14.3725648,13.8528496 14.2559781,13.7728497 14.11133,13.7142857 L7.65381818,13.7142857 L7.65381818,21 L5.45454545,21 L5.45454545,13.7142857 L0,13.7142857 L0,11.5714286 L2.72727273,11.5714286 L7.65381818,11.5714286 L7.65381818,11.5885714 L11.7381818,11.5885714 C11.9214029,11.5885714 12.0976608,11.5828572 12.2669556,11.5714286 L20.1494355,11.5714286 Z M17.5196393,9.42857082 C17.5751526,9.17142889 17.6029091,8.91428661 17.6029091,8.65714286 L17.6029091,7.88571429 C17.6029091,7.23428246 17.4850921,6.6128601 17.2494545,6.02142857 C17.013817,5.42999704 16.6647296,4.9114308 16.2021818,4.46571429 C15.7396341,4.01999777 15.1592762,3.66428704 14.4610909,3.39857143 C13.7629056,3.13285581 12.9425502,3 12,3 L5.45454545,3 L5.45454545,9.42857143 L7.65381818,9.42857143 L7.65381818,5.00571429 L11.7381818,5.00571429 C12.9774607,5.00571429 13.8981788,5.28428293 14.5003636,5.84142857 C15.1025485,6.39857421 15.4036364,7.13142403 15.4036364,8.04 L15.4036364,8.50285714 C15.4036364,8.8382991 15.3705192,9.14687025 15.3042845,9.42857143 L17.5196393,9.42857143 Z"/>
</svg>
