<svg xmlns="http://www.w3.org/2000/svg" width="24" height="24" viewBox="0 0 24 24">
  <path fill="#000000" d="M21.4628571,11.5714286 L24,11.5714286 L24,13.7142857 L18.7044156,13.7142857 L17.952,21 L13.9461818,21 L13.2200044,13.7142857 L10.9545411,13.7142857 L10.2283636,21 L6.22254545,21 L5.47012987,13.7142857 L0,13.7142857 L0,11.5714286 L2.62441558,11.5714286 L21.4628571,11.5714286 Z M19.147013,9.42857143 L19.8109091,3 L17.8210909,3 L17.1606309,9.42857143 L19.147013,9.42857143 Z M14.7243023,9.42857143 L14.1032727,3 L10.0712727,3 L9.45024315,9.42857143 L11.3817043,9.42857143 L11.9301818,3.92571429 L12.2443636,3.92571429 L12.7928412,9.42857143 L14.7243023,9.42857143 Z M7.01391457,9.42857143 L6.35345455,3 L4.36363636,3 L5.02753247,9.42857143 L7.01391457,9.42857143 Z M7.45422125,13.7142857 L8.10763636,20.0742857 L8.42181818,20.0742857 L9.03622344,13.7142857 L7.45422125,13.7142857 Z M15.138322,13.7142857 L15.7527273,20.0742857 L16.0669091,20.0742857 L16.7203242,13.7142857 L15.138322,13.7142857 Z"/>
</svg>
