<svg xmlns="http://www.w3.org/2000/svg" width="24" height="24" viewBox="0 0 24 24">
  <path fill="#000000" d="M17.3793103,21 L15.2068966,21 L15.2068966,14.9828571 C15.2068966,14.5371406 15.1034493,14.1942869 14.8965517,13.9542857 C14.6896541,13.7142845 14.3275888,13.5942857 13.8103448,13.5942857 L8.17241379,13.5942857 L8.17241379,21 L6,21 L6,3 L12.4655172,3 C13.3965564,3 14.2068931,3.13285581 14.8965517,3.39857143 C15.5862103,3.66428704 16.1594805,4.01999777 16.6163793,4.46571429 C17.0732781,4.9114308 17.4181023,5.42999704 17.6508621,6.02142857 C17.8836219,6.6128601 18,7.23428246 18,7.88571429 L18,8.65714286 C18,9.32571763 17.814657,9.99428237 17.4439655,10.6628571 C17.073274,11.3314319 16.5000039,11.8457125 15.7241379,12.2057143 L15.7241379,12.5142857 C16.2413819,12.6000004 16.6465503,12.8057127 16.9396552,13.1314286 C17.2327601,13.4571445 17.3793103,13.919997 17.3793103,14.52 L17.3793103,21 Z M8.17241379,11.5885714 L12.2068966,11.5885714 C13.4310406,11.5885714 14.3405143,11.3271455 14.9353448,10.8042857 C15.5301754,10.281426 15.8275862,9.51429077 15.8275862,8.50285714 L15.8275862,8.04 C15.8275862,7.13142403 15.5301754,6.39857421 14.9353448,5.84142857 C14.3405143,5.28428293 13.4310406,5.00571429 12.2068966,5.00571429 L8.17241379,5.00571429 L8.17241379,11.5885714 Z"/>
</svg>
