<svg xmlns="http://www.w3.org/2000/svg" width="15" height="20" viewBox="0 0 15 20">
    <g fill="#A5902F" fill-rule="evenodd">
        <path d="M13.995 19.063H.985a.05.05 0 0 1-.05-.049V.986a.05.05 0 0 1 .05-.05h9.479v2.6c0 .543.442.985.985.985h2.596v14.493a.05.05 0 0 1-.05.05zM11.45 3.585a.05.05 0 0 1-.05-.05V1.6l1.984 1.986h-1.934zm3.53.463a.468.468 0 0 0-.136-.326L11.263.137A.466.466 0 0 0 10.931 0H.985A.986.986 0 0 0 0 .986v18.028c0 .544.442.986.985.986h13.01a.986.986 0 0 0 .985-.986V4.053v-.005z"/>
        <path d="M11.63 6.407H3.35a.468.468 0 0 0 0 .936h8.28a.468.468 0 0 0 0-.936M11.63 9.233H3.35a.468.468 0 0 0 0 .936h8.28a.468.468 0 0 0 0-.936M11.63 12.058H3.35a.468.468 0 0 0 0 .937h8.28a.468.468 0 0 0 0-.937M7.49 14.884H3.35a.468.468 0 0 0 0 .937h4.14a.468.468 0 0 0 0-.937"/>
    </g>
</svg>
