<?xml version="1.0" ?><svg id="Layer_1" style="enable-background:new 0 0 85.271 114.521;" version="1.1" viewBox="0 0 85.271 114.521" xml:space="preserve" xmlns="http://www.w3.org/2000/svg" xmlns:xlink="http://www.w3.org/1999/xlink"><g><path d="M11.271,114.521H74c6.225,0,11.271-5.046,11.271-11.271V39.656L45.568,0L11.271,0   C5.046,0,0,5.046,0,11.271l0,91.979C0,109.475,5.046,114.521,11.271,114.521z" style="fill:#FDF2CE;"/><g><path d="M15.548,80.235c0-0.478,0.112-0.898,0.336-1.263c0.224-0.364,0.549-0.546,0.976-0.546h13.536    c0.427,0,0.752,0.182,0.976,0.546c0.224,0.364,0.336,0.785,0.336,1.263c0,0.499-0.118,0.93-0.352,1.294    c-0.235,0.364-0.555,0.545-0.96,0.545h-4.672V100.5c0,0.407-0.208,0.729-0.624,0.965s-0.901,0.354-1.456,0.354    c-0.576,0-1.067-0.118-1.472-0.354s-0.608-0.558-0.608-0.965V82.074H16.86c-0.405,0-0.725-0.176-0.96-0.53    C15.665,81.191,15.548,80.755,15.548,80.235z" style="fill:#ABC6D9;"/><path d="M34.076,99.898c0-0.213,0.085-0.469,0.256-0.768l5.536-9.024l-5.344-8.992    c-0.192-0.32-0.288-0.618-0.288-0.896c0-0.533,0.282-0.992,0.848-1.376c0.565-0.384,1.168-0.576,1.808-0.576    c0.597,0,1.056,0.299,1.376,0.896l4.352,7.84l4.352-7.84c0.341-0.597,0.811-0.896,1.408-0.896c0.64,0,1.242,0.192,1.808,0.576    c0.565,0.384,0.848,0.843,0.848,1.376c0,0.278-0.096,0.576-0.288,0.896l-5.344,8.992l5.536,9.024    c0.149,0.277,0.224,0.534,0.224,0.768c0,0.555-0.299,1.04-0.896,1.456s-1.206,0.624-1.824,0.624c-0.512,0-0.886-0.224-1.12-0.672    l-4.704-8.224l-4.672,8.224c-0.256,0.448-0.64,0.672-1.152,0.672c-0.598,0-1.2-0.208-1.808-0.624S34.076,100.453,34.076,99.898z" style="fill:#ABC6D9;"/><path d="M53.596,80.235c0-0.478,0.112-0.898,0.336-1.263c0.224-0.364,0.549-0.546,0.976-0.546h13.536    c0.427,0,0.752,0.182,0.976,0.546c0.224,0.364,0.336,0.785,0.336,1.263c0,0.499-0.118,0.93-0.352,1.294    c-0.235,0.364-0.555,0.545-0.96,0.545h-4.672V100.5c0,0.407-0.208,0.729-0.624,0.965s-0.901,0.354-1.456,0.354    c-0.576,0-1.067-0.118-1.472-0.354s-0.608-0.558-0.608-0.965V82.074h-4.704c-0.405,0-0.725-0.176-0.96-0.53    C53.713,81.191,53.596,80.755,53.596,80.235z" style="fill:#ABC6D9;"/></g><path d="M57.048,39.656h28.223L45.568,0l0.033,28.223C45.609,34.539,50.731,39.656,57.048,39.656z" style="fill:#B8B097;"/><path d="M59.321,37.383c6.417,0.333,25.95,2.273,25.95,2.273L45.568,0c0,0,1.767,19.496,2.306,25.95   C48.4,32.245,53.013,37.057,59.321,37.383z" style="fill:#ABC6D9;"/><line style="fill:#FDFFEE;" x1="85.271" x2="45.568" y1="39.656" y2="0"/></g></svg>