<?xml version="1.0" encoding="utf-8"?><!DOCTYPE svg  PUBLIC '-//W3C//DTD SVG 1.1//EN'  'http://www.w3.org/Graphics/SVG/1.1/DTD/svg11.dtd'><svg xmlns="http://www.w3.org/2000/svg" xmlns:xlink="http://www.w3.org/1999/xlink"><symbol viewBox="0 0 24 24" id="access-n-r"><path d="M20.15 11.571H24v2.143h-7.14c.077.234.115.502.115.806V21h-2.2v-6.017c0-.446-.104-.789-.314-1.029a.905.905 0 0 0-.35-.24H7.654V21h-2.2v-7.286H0v-2.143h7.654v.018h4.084c.183 0 .36-.006.529-.018h7.882zM17.52 9.43c.055-.258.083-.515.083-.772v-.771a4.99 4.99 0 0 0-.354-1.865 4.399 4.399 0 0 0-1.047-1.555c-.462-.446-1.043-.802-1.74-1.067C13.761 3.133 12.941 3 12 3H5.455v6.429h2.199V5.006h4.084c1.24 0 2.16.278 2.762.835.603.558.904 1.29.904 2.199v.463c0 .335-.033.644-.1.926h2.216z"/></symbol><symbol viewBox="0 0 24 24" id="access-n-w"><path d="M21.463 11.571H24v2.143h-5.296L17.952 21h-4.006l-.726-7.286h-2.265L10.228 21H6.223l-.753-7.286H0v-2.143H21.463zM19.147 9.43L19.811 3h-1.99l-.66 6.429h1.986zm-4.423 0L14.104 3H10.07l-.62 6.429h1.93l.55-5.503h.313l.549 5.503h1.931zm-7.71 0L6.354 3h-1.99l.664 6.429h1.986zm.44 4.285l.654 6.36h.314l.614-6.36H7.454zm7.684 0l.615 6.36h.314l.653-6.36h-1.582z"/></symbol><symbol viewBox="0 0 24 24" id="access-r"><path d="M17.38 21h-2.173v-6.017c0-.446-.104-.789-.31-1.029-.207-.24-.57-.36-1.087-.36H8.172V21H6V3h6.466c.93 0 1.74.133 2.43.399.69.265 1.263.621 1.72 1.067.457.445.802.964 1.035 1.555.233.592.349 1.213.349 1.865v.771c0 .669-.185 1.337-.556 2.006-.37.668-.944 1.183-1.72 1.543v.308c.517.086.923.292 1.216.617.293.326.44.789.44 1.389V21zm-9.208-9.411h4.035c1.224 0 2.134-.262 2.728-.785.595-.523.893-1.29.893-2.301V8.04c0-.909-.298-1.641-.893-2.199-.594-.557-1.504-.835-2.728-.835H8.172v6.583z"/></symbol><symbol viewBox="0 0 24 24" id="access-w"><path d="M17.195 21h-3.89L11.653 3.926h-.306L9.695 21h-3.89L4 3h1.932l1.704 17.074h.305L9.542 3h3.916l1.601 17.074h.305L17.068 3H19z"/></symbol><symbol viewBox="0 0 14 16" id="bell"><path fill-rule="evenodd" d="M14 12v1H0v-1l.73-.58c.77-.77.81-2.55 1.19-4.42C2.69 3.23 6 2 6 2c0-.55.45-1 1-1s1 .45 1 1c0 0 3.39 1.23 4.16 5 .38 1.88.42 3.66 1.19 4.42l.66.58H14zm-7 4c1.11 0 2-.89 2-2H5c0 1.11.89 2 2 2z"/></symbol><symbol viewBox="0 0 8 16" id="dash"><path fill-rule="evenodd" d="M0 7v2h8V7z"/></symbol><symbol viewBox="0 0 16 16" id="dashboard"><path fill-rule="evenodd" d="M9 5H8V4h1v1zm4 3h-1v1h1V8zM6 5H5v1h1V5zM5 8H4v1h1V8zm11-5.5l-.5-.5L9 7c-.06-.02-1 0-1 0-.55 0-1 .45-1 1v1c0 .55.45 1 1 1h1c.55 0 1-.45 1-1v-.92l6-5.58zm-1.59 4.09c.19.61.3 1.25.3 1.91 0 3.42-2.78 6.2-6.2 6.2-3.42 0-6.21-2.78-6.21-6.2 0-3.42 2.78-6.2 6.2-6.2 1.2 0 2.31.34 3.27.94l.94-.94A7.459 7.459 0 0 0 8.51 1C4.36 1 1 4.36 1 8.5 1 12.64 4.36 16 8.5 16c4.14 0 7.5-3.36 7.5-7.5 0-1.03-.2-2.02-.59-2.91l-1 1z"/></symbol><symbol viewBox="0 0 12 16" id="database"><path d="M6 15c-3.31 0-6-.9-6-2v-2c0-.17.09-.34.21-.5.67.86 3 1.5 5.79 1.5s5.12-.64 5.79-1.5c.13.16.21.33.21.5v2c0 1.1-2.69 2-6 2zm0-4c-3.31 0-6-.9-6-2V7c0-.11.04-.21.09-.31.03-.06.07-.13.12-.19C.88 7.36 3.21 8 6 8s5.12-.64 5.79-1.5c.05.06.09.13.12.19.05.1.09.21.09.31v2c0 1.1-2.69 2-6 2zm0-4c-3.31 0-6-.9-6-2V3c0-1.1 2.69-2 6-2s6 .9 6 2v2c0 1.1-2.69 2-6 2zm0-5c-2.21 0-4 .45-4 1s1.79 1 4 1 4-.45 4-1-1.79-1-4-1z"/></symbol><symbol viewBox="0 0 12 16" id="file"><path fill-rule="evenodd" d="M6 5H2V4h4v1zM2 8h7V7H2v1zm0 2h7V9H2v1zm0 2h7v-1H2v1zm10-7.5V14c0 .55-.45 1-1 1H1c-.55 0-1-.45-1-1V2c0-.55.45-1 1-1h7.5L12 4.5zM11 5L8 2H1v12h10V5z"/></symbol><symbol viewBox="0 0 12 16" id="file-binary"><path fill-rule="evenodd" d="M4 12h1v1H2v-1h1v-2H2V9h2v3zm8-7.5V14c0 .55-.45 1-1 1H1c-.55 0-1-.45-1-1V2c0-.55.45-1 1-1h7.5L12 4.5zM11 5L8 2H1v12h10V5zM8 4H6v1h1v2H6v1h3V7H8V4zM2 4h3v4H2V4zm1 3h1V5H3v2zm3 2h3v4H6V9zm1 3h1v-2H7v2z"/></symbol><symbol viewBox="0 0 12 16" id="file-code"><path fill-rule="evenodd" d="M8.5 1H1c-.55 0-1 .45-1 1v12c0 .55.45 1 1 1h10c.55 0 1-.45 1-1V4.5L8.5 1zM11 14H1V2h7l3 3v9zM5 6.98L3.5 8.5 5 10l-.5 1L2 8.5 4.5 6l.5.98zM7.5 6L10 8.5 7.5 11l-.5-.98L8.5 8.5 7 7l.5-1z"/></symbol><symbol viewBox="0 0 14 16" id="file-directory"><path fill-rule="evenodd" d="M13 4H7V3c0-.66-.31-1-1-1H1c-.55 0-1 .45-1 1v10c0 .55.45 1 1 1h12c.55 0 1-.45 1-1V5c0-.55-.45-1-1-1zM6 4H1V3h5v1z"/></symbol><symbol viewBox="0 0 12 16" id="file-media"><path fill-rule="evenodd" d="M6 5h2v2H6V5zm6-.5V14c0 .55-.45 1-1 1H1c-.55 0-1-.45-1-1V2c0-.55.45-1 1-1h7.5L12 4.5zM11 5L8 2H1v11l3-5 2 4 2-2 3 3V5z"/></symbol><symbol viewBox="0 0 12 16" id="file-pdf"><path fill-rule="evenodd" d="M8.5 1H1a1 1 0 0 0-1 1v12a1 1 0 0 0 1 1h10a1 1 0 0 0 1-1V4.5L8.5 1zM1 2h4a.68.68 0 0 0-.31.2 1.08 1.08 0 0 0-.23.47 4.22 4.22 0 0 0-.09 1.47c.06.609.173 1.211.34 1.8A21.78 21.78 0 0 1 3.6 8.6c-.5 1-.8 1.66-.91 1.84a7.16 7.16 0 0 0-.69.3 4.19 4.19 0 0 0-1 .64V2zm4.42 4.8a5.65 5.65 0 0 0 1.17 2.09c.275.237.595.417.94.53-.64.09-1.23.2-1.81.33a12.22 12.22 0 0 0-1.81.59c-.587.243.22-.44.61-1.25.365-.74.67-1.51.91-2.3l-.01.01zM11 14H1.5a.74.74 0 0 1-.17 0 2.12 2.12 0 0 0 .73-.44 10.14 10.14 0 0 0 1.78-2.38c.31-.13.58-.23.81-.31l.42-.14c.45-.13.94-.23 1.44-.33s1-.16 1.48-.2a8.65 8.65 0 0 0 1.39.53c.403.11.814.188 1.23.23h.38V14H11zm0-4.86a3.74 3.74 0 0 0-.64-.28 4.22 4.22 0 0 0-.75-.11c-.411.003-.822.03-1.23.08a3 3 0 0 1-1-.64 6.07 6.07 0 0 1-1.29-2.33c.111-.661.178-1.33.2-2 .02-.25.02-.5 0-.75a1.05 1.05 0 0 0-.2-.88.82.82 0 0 0-.61-.23H8l3 3v4.14z"/></symbol><symbol viewBox="0 0 15 20" id="file-r"><g fill="#A5902F" fill-rule="evenodd"><path d="M13.995 19.063H.985a.05.05 0 0 1-.05-.049V.986a.05.05 0 0 1 .05-.05h9.479v2.6c0 .543.442.985.985.985h2.596v14.493a.05.05 0 0 1-.05.05zM11.45 3.585a.05.05 0 0 1-.05-.05V1.6l1.984 1.986H11.45zm3.53.463a.468.468 0 0 0-.136-.326L11.263.137A.466.466 0 0 0 10.931 0H.985A.986.986 0 0 0 0 .986v18.028c0 .544.442.986.985.986h13.01a.986.986 0 0 0 .985-.986V4.048z"/><path d="M11.63 6.407H3.35a.468.468 0 0 0 0 .936h8.28a.468.468 0 0 0 0-.936m0 2.826H3.35a.468.468 0 0 0 0 .936h8.28a.468.468 0 0 0 0-.936m0 2.825H3.35a.468.468 0 0 0 0 .937h8.28a.468.468 0 0 0 0-.937m-4.14 2.826H3.35a.468.468 0 0 0 0 .937h4.14a.468.468 0 0 0 0-.937"/></g></symbol><symbol viewBox="0 0 15 20" id="file-r-w"><g fill="#499E53" fill-rule="evenodd"><path d="M13.995 19.063H.985a.05.05 0 0 1-.05-.049V.986a.05.05 0 0 1 .05-.05h9.479v2.6c0 .543.442.985.985.985h2.596v14.493a.05.05 0 0 1-.05.05zM11.45 3.585a.05.05 0 0 1-.05-.05V1.6l1.984 1.986H11.45zm3.53.463a.468.468 0 0 0-.136-.326L11.263.137A.466.466 0 0 0 10.931 0H.985A.986.986 0 0 0 0 .986v18.028c0 .544.442.986.985.986h13.01a.986.986 0 0 0 .985-.986V4.048z"/><path d="M11.63 6.407H3.35a.468.468 0 0 0 0 .936h8.28a.468.468 0 0 0 0-.936m0 2.826H3.35a.468.468 0 0 0 0 .936h8.28a.468.468 0 0 0 0-.936m0 2.825H3.35a.468.468 0 0 0 0 .937h8.28a.468.468 0 0 0 0-.937m-4.14 2.826H3.35a.468.468 0 0 0 0 .937h4.14a.468.468 0 0 0 0-.937"/></g></symbol><symbol viewBox="0 0 14 16" id="file-submodule"><path fill-rule="evenodd" d="M10 7H4v7h9c.55 0 1-.45 1-1V8h-4V7zM9 9H5V8h4v1zm4-5H7V3c0-.66-.31-1-1-1H1c-.55 0-1 .45-1 1v10c0 .55.45 1 1 1h2V7c0-.55.45-1 1-1h6c.55 0 1 .45 1 1h3V5c0-.55-.45-1-1-1zM6 4H1V3h5v1z"/></symbol><symbol viewBox="0 0 14 16" id="file-symlink-directory"><path fill-rule="evenodd" d="M13 4H7V3c0-.66-.31-1-1-1H1c-.55 0-1 .45-1 1v10c0 .55.45 1 1 1h12c.55 0 1-.45 1-1V5c0-.55-.45-1-1-1zM1 3h5v1H1V3zm6 9v-2c-.98-.02-1.84.22-2.55.7-.71.48-1.19 1.25-1.45 2.3.02-1.64.39-2.88 1.13-3.73C4.86 8.43 5.82 8 7.01 8V6l4 3-4 3H7z"/></symbol><symbol viewBox="0 0 12 16" id="file-symlink-file"><path fill-rule="evenodd" d="M8.5 1H1c-.55 0-1 .45-1 1v12c0 .55.45 1 1 1h10c.55 0 1-.45 1-1V4.5L8.5 1zM11 14H1V2h7l3 3v9zM6 4.5l4 3-4 3v-2c-.98-.02-1.84.22-2.55.7-.71.48-1.19 1.25-1.45 2.3.02-1.64.39-2.88 1.13-3.73.73-.84 1.69-1.27 2.88-1.27v-2H6z"/></symbol><symbol viewBox="0 0 12 16" id="file-text"><path d="M6 5H2V4h4v1zM2 8h7V7H2v1zm0 2h7V9H2v1zm0 2h7v-1H2v1zm10-7.5V14c0 .55-.45 1-1 1H1c-.55 0-1-.45-1-1V2c0-.55.45-1 1-1h7.5L12 4.5zM11 5L8 2H1v12h10V5z"/></symbol><symbol viewBox="0 0 15 20" id="file-v"><g fill="#424242" fill-rule="evenodd"><path d="M13.995 19.063H.985a.05.05 0 0 1-.05-.049V.986a.05.05 0 0 1 .05-.05h9.479v2.6c0 .543.442.985.985.985h2.596v14.493a.05.05 0 0 1-.05.05zM11.45 3.585a.05.05 0 0 1-.05-.05V1.6l1.984 1.986H11.45zm3.53.463a.468.468 0 0 0-.136-.326L11.263.137A.466.466 0 0 0 10.931 0H.985A.986.986 0 0 0 0 .986v18.028c0 .544.442.986.985.986h13.01a.986.986 0 0 0 .985-.986V4.048z"/><path d="M11.63 6.407H3.35a.468.468 0 0 0 0 .936h8.28a.468.468 0 0 0 0-.936m0 2.826H3.35a.468.468 0 0 0 0 .936h8.28a.468.468 0 0 0 0-.936m0 2.825H3.35a.468.468 0 0 0 0 .937h8.28a.468.468 0 0 0 0-.937m-4.14 2.826H3.35a.468.468 0 0 0 0 .937h4.14a.468.468 0 0 0 0-.937"/></g></symbol><symbol viewBox="0 0 12 16" id="file-zip"><path fill-rule="evenodd" d="M8.5 1H1a1 1 0 0 0-1 1v12a1 1 0 0 0 1 1h10a1 1 0 0 0 1-1V4.5L8.5 1zM11 14H1V2h3v1h1V2h3l3 3v9zM5 4V3h1v1H5zM4 4h1v1H4V4zm1 2V5h1v1H5zM4 6h1v1H4V6zm1 2V7h1v1H5zM4 9.28A2 2 0 0 0 3 11v1h4v-1a2 2 0 0 0-2-2V8H4v1.28zM6 10v1H4v-1h2z"/></symbol><symbol viewBox="0 0 32 28" id="flatlist"><g fill="#4e4e50"><circle cx="2" cy="2" r="2"/><circle cx="2" cy="10" r="2"/><circle cx="2" cy="18" r="2"/><circle cx="2" cy="26" r="2"/><path d="M8 0h24v4H8zM8 8h24v4H8zM8 16h24v4H8zM8 24h24v4H8z"/></g></symbol><symbol viewBox="0 0 23 21" id="folder-r"><path fill="#A5902F" fill-rule="evenodd" d="M10.164 2.68L8.247 0H0v20.276h23V2.68H10.164zm1.916 2.676l-1.368-1.913h11.52v1.913H12.08z"/></symbol><symbol viewBox="0 0 23 21" id="folder-r-w"><path fill="#499E53" fill-rule="evenodd" d="M10.164 2.68L8.247 0H0v20.276h23V2.68H10.164zm1.916 2.676l-1.368-1.913h11.52v1.913H12.08z"/></symbol><symbol viewBox="0 0 23 21" id="folder-v"><path fill="#424242" fill-rule="evenodd" d="M10.164 2.68L8.247 0H0v20.276h23V2.68H10.164zm1.916 2.676l-1.368-1.913h11.52v1.913H12.08z"/></symbol><symbol viewBox="0 0 32 40" id="gdrive"><path d="M12.5 6a.5.5 0 0 0-.027.002.5.5 0 0 0-.047.004.5.5 0 0 0-.037.008.5.5 0 0 0-.024.004.5.5 0 0 0-.013.003.5.5 0 0 0-.026.01.5.5 0 0 0-.039.018.5.5 0 0 0-.014.006.5.5 0 0 0-.033.017.5.5 0 0 0-.006.004.5.5 0 0 0-.039.028.5.5 0 0 0-.021.017.5.5 0 0 0-.026.022.5.5 0 0 0-.021.025.5.5 0 0 0-.004.004.5.5 0 0 0-.014.017.5.5 0 0 0-.027.038.5.5 0 0 0-.004.005.5.5 0 0 0-.012.018l-7 12.086a.5.5 0 0 0 0 .5l4 6.928a.5.5 0 0 0 .55.236H23.42a.5.5 0 0 0 .432-.248l4.08-7a.5.5 0 0 0 .048-.121.5.5 0 0 0 .006-.02.5.5 0 0 0-.015-.275.5.5 0 0 0-.006-.018.5.5 0 0 0-.012-.029.5.5 0 0 0-.002-.004.5.5 0 0 0-.02-.035l-.011-.021a.5.5 0 0 0-.004-.006L20.949 6.25a.5.5 0 0 0-.431-.25H12.5zm.871 1h6.858l6.402 11h-6.844L13.371 7zm-.871.5l3.402 5.893-2.71 4.707a.5.5 0 0 0-.196.337L9.5 24.512l-3.422-5.926L12.5 7.5zm4.004 6.855L18.629 18h-4.225l2.1-3.645zM13.828 19h12.803l-3.498 6h-12.76l3.455-6z"/></symbol><symbol viewBox="0 0 14 16" id="gear"><path fill-rule="evenodd" d="M14 8.77v-1.6l-1.94-.64-.45-1.09.88-1.84-1.13-1.13-1.81.91-1.09-.45-.69-1.92h-1.6l-.63 1.94-1.11.45-1.84-.88-1.13 1.13.91 1.81-.45 1.09L0 7.23v1.59l1.94.64.45 1.09-.88 1.84 1.13 1.13 1.81-.91 1.09.45.69 1.92h1.59l.63-1.94 1.11-.45 1.84.88 1.13-1.13-.92-1.81.47-1.09L14 8.75v.02zM7 11c-1.66 0-3-1.34-3-3s1.34-3 3-3 3 1.34 3 3-1.34 3-3 3z"/></symbol><symbol viewBox="0 0 16 16" id="graph"><path fill-rule="evenodd" d="M16 14v1H0V0h1v14h15zM5 13H3V8h2v5zm4 0H7V3h2v10zm4 0h-2V6h2v7z"/></symbol><symbol viewBox="-0.288 -24.675 141.732 141.732" id="group"><path d="M37.164 60.964C17.418 61.378 1.395 74.75 0 91.622h18.693l.009-.104c.9-10.901 6.48-21.019 15.712-28.487a50.076 50.076 0 0 1 2.75-2.067m7.456-33.717c0-2.408.255-4.747.731-6.98-2.211-1.199-4.662-1.872-7.244-1.872-9.761 0-17.673 9.526-17.673 21.279 0 11.395 7.437 20.695 16.78 21.253 4.202-2.928 8.886-5.22 13.868-6.815a21.717 21.717 0 0 0 2.681-4.568c-5.56-5.18-9.143-13.248-9.143-22.297m48.375-.253C92.995 12.085 82.958 0 70.578 0 58.197 0 48.161 12.085 48.161 26.994c0 13.36 8.063 24.457 18.651 26.61-23.855 1.586-42.865 18.11-44.574 38.776h96.68c-1.71-20.666-20.719-37.19-44.576-38.775 10.588-2.154 18.653-13.248 18.653-26.611m27.725 13.442c0-11.753-7.912-21.28-17.674-21.28-2.583 0-5.031.676-7.243 1.872.479 2.233.729 4.573.729 6.98 0 9.05-3.582 17.117-9.144 22.293a21.806 21.806 0 0 0 2.678 4.571c4.984 1.596 9.667 3.888 13.868 6.813 9.351-.555 16.786-9.856 16.786-21.249m20.436 51.947c-1.396-16.872-17.418-30.243-37.164-30.657.94.657 1.857 1.346 2.749 2.066 9.23 7.469 14.812 17.586 15.713 28.484l.009.104 18.693.003z"/></symbol><symbol viewBox="-0.288 -24.675 141.732 141.732" id="group-active"><path d="M37.164 60.964C17.418 61.378 1.395 74.75 0 91.622h18.693l.009-.104c.9-10.901 6.48-21.019 15.712-28.487a50.076 50.076 0 0 1 2.75-2.067m7.456-33.717c0-2.408.255-4.747.731-6.98-2.211-1.199-4.662-1.872-7.244-1.872-9.761 0-17.673 9.526-17.673 21.279 0 11.395 7.437 20.695 16.78 21.253 4.202-2.928 8.886-5.22 13.868-6.815a21.717 21.717 0 0 0 2.681-4.568c-5.56-5.18-9.143-13.248-9.143-22.297m48.375-.253C92.995 12.085 82.958 0 70.578 0 58.197 0 48.161 12.085 48.161 26.994c0 13.36 8.063 24.457 18.651 26.61-23.855 1.586-42.865 18.11-44.574 38.776h96.68c-1.71-20.666-20.719-37.19-44.576-38.775 10.588-2.154 18.653-13.248 18.653-26.611m27.725 13.442c0-11.753-7.912-21.28-17.674-21.28-2.583 0-5.031.676-7.243 1.872.479 2.233.729 4.573.729 6.98 0 9.05-3.582 17.117-9.144 22.293a21.806 21.806 0 0 0 2.678 4.571c4.984 1.596 9.667 3.888 13.868 6.813 9.351-.555 16.786-9.856 16.786-21.249m20.436 51.947c-1.396-16.872-17.418-30.243-37.164-30.657.94.657 1.857 1.346 2.749 2.066 9.23 7.469 14.812 17.586 15.713 28.484l.009.104 18.693.003z"/></symbol><symbol viewBox="0 0 512 512" id="group-bg"><style>.bfst0{display:none}.bfst1{fill:#f3ad2e}.bfst1,.bfst2{display:inline}.bfst3{fill:#f3ad2e}.bfst4{clip-path:url(#bfSVGID_2_)}</style><g class="bfst0" id="bfLayer_1"><path class="bfst1" d="M256 28C130.1 28 28 130.1 28 256s102.1 228 228 228 228-102.1 228-228S381.9 28 256 28zm0 94c36.7 0 66.5 29.8 66.5 66.5S292.7 255 256 255s-66.5-29.8-66.5-66.5S219.3 122 256 122zm107.5 229.2c0 21.3-17.4 38.7-38.7 38.7H187.2c-21.3 0-38.7-17.4-38.7-38.7v-82c0-21.3 17.4-38.7 38.7-38.7h3.2c13.5 22 37.8 36.7 65.5 36.7s52-14.7 65.5-36.7h3.2c21.3 0 38.7 17.4 38.7 38.7v82z"/></g><g class="bfst0" id="bfLayer_2"><g class="bfst2"><path class="bfst3" d="M366.8 29h-279c-27.5 0-50 22.5-50 50v354c0 27.5 22.5 50 50 50h279c27.5 0 50-22.5 50-50V79c0-27.5-22.5-50-50-50zm-139.5 93c36.7 0 66.5 29.8 66.5 66.5S264 255 227.3 255s-66.5-29.8-66.5-66.5 29.7-66.5 66.5-66.5zm107.5 229.2c0 21.3-17.4 38.7-38.7 38.7H158.5c-21.3 0-38.7-17.4-38.7-38.7v-82c0-21.3 17.4-38.7 38.7-38.7h3.2c13.5 22 37.8 36.7 65.5 36.7s52-14.7 65.5-36.7h3.2c21.3 0 38.7 17.4 38.7 38.7v82z"/><defs><path id="bfSVGID_1_" d="M412.8 113h61.5v275h-61.5z"/></defs><clipPath id="bfSVGID_2_"><use xlink:href="#bfSVGID_1_" overflow="visible"/></clipPath><g class="bfst4"><path class="bfst3" d="M464.3 120h-72c-5.5 0-10 4.5-10 10v46c0 5.5 4.5 10 10 10h72c5.5 0 10-4.5 10-10v-46c0-5.5-4.5-10-10-10zM436.8 318h-72c-5.5 0-10 4.5-10 10v46c0 5.5 4.5 10 10 10h72c5.5 0 10-4.5 10-10v-46c0-5.5-4.5-10-10-10zM453.8 219h-72c-5.5 0-10 4.5-10 10v46c0 5.5 4.5 10 10 10h72c5.5 0 10-4.5 10-10v-46c0-5.5-4.5-10-10-10z"/></g></g></g><g class="bfst0" id="bfLayer_3"><g class="bfst2"><path class="bfst3" d="M475 107h-20.5c-3.2 22-22.1 39-45 39s-41.9-17-45-39h-217c-3.2 22-22.1 39-45 39s-41.9-17-45-39H37c-5.5 0-10 4.5-10 10v322c0 5.5 4.5 10 10 10h438c5.5 0 10-4.5 10-10V117c0-5.5-4.5-10-10-10zm-319 68c28.2 0 51.1 22.9 51.1 51.1s-22.9 51.1-51.1 51.1-51.1-22.9-51.1-51.1S127.8 175 156 175zm82.6 176.2c0 16.4-13.4 29.8-29.8 29.8H103.1c-16.4 0-29.8-13.4-29.8-29.8v-63c0-16.4 13.4-29.8 29.8-29.8h2.5c10.4 16.9 29 28.2 50.4 28.2s40-11.3 50.4-28.2h2.5c16.4 0 29.8 13.4 29.8 29.8v63zM438 348c0 5.5-4.5 10-10 10H273c-5.5 0-10-4.5-10-10v-7c0-5.5 4.5-10 10-10h155c5.5 0 10 4.5 10 10v7zm0-65c0 5.5-4.5 10-10 10H273c-5.5 0-10-4.5-10-10v-7c0-5.5 4.5-10 10-10h155c5.5 0 10 4.5 10 10v7zm0-65c0 5.5-4.5 10-10 10H273c-5.5 0-10-4.5-10-10v-7c0-5.5 4.5-10 10-10h155c5.5 0 10 4.5 10 10v7z"/><path class="bfst3" d="M102.5 63C82.3 63 66 79.3 66 99.5S82.3 136 102.5 136 139 119.7 139 99.5 122.7 63 102.5 63zm0 60c-13 0-23.5-10.5-23.5-23.5S89.5 76 102.5 76 126 86.5 126 99.5 115.5 123 102.5 123zM410.5 63C390.3 63 374 79.3 374 99.5s16.3 36.5 36.5 36.5S447 119.7 447 99.5 430.7 63 410.5 63zm0 60c-13 0-23.5-10.5-23.5-23.5S397.5 76 410.5 76 434 86.5 434 99.5 423.5 123 410.5 123z"/></g></g><g class="bfst0" id="bfLayer_4"><g class="bfst2"><path class="bfst3" d="M357.4 182.7h-64c-4.1 0-7.5 3.4-7.5 7.5s3.4 7.5 7.5 7.5h64c4.1 0 7.5-3.4 7.5-7.5 0-4.2-3.4-7.5-7.5-7.5zM357.4 155.3h-64c-4.1 0-7.5 3.4-7.5 7.5s3.4 7.5 7.5 7.5h64c4.1 0 7.5-3.4 7.5-7.5s-3.4-7.5-7.5-7.5z"/><path class="bfst3" d="M256 28C130.1 28 28 130.1 28 256s102.1 228 228 228 228-102.1 228-228S381.9 28 256 28zm-59 166c28.5 0 51.6 23.1 51.6 51.6s-23.1 51.6-51.6 51.6-51.6-23.1-51.6-51.6S168.5 194 197 194zm83.5 177.9c0 16.5-13.5 30.1-30.1 30.1H143.6c-16.5 0-30.1-13.5-30.1-30.1v-63.7c0-16.5 13.5-30.1 30.1-30.1h2.5c10.5 17.1 29.3 28.5 50.9 28.5s40.4-11.4 50.9-28.5h2.5c16.5 0 30.1 13.5 30.1 30.1v63.7zm124.9-188.2c0 17.9-12.7 32.6-28.2 32.6h-62.1L255.2 240l17.9-23.8h.4c-15.5 0-28.2-14.7-28.2-32.6v-41.3c0-17.9 12.7-32.6 28.2-32.6h103.7c15.5 0 28.2 14.7 28.2 32.6v41.4z"/><path class="bfst3" d="M357.4 128h-64c-4.1 0-7.5 3.4-7.5 7.5s3.4 7.5 7.5 7.5h64c4.1 0 7.5-3.4 7.5-7.5s-3.4-7.5-7.5-7.5z"/></g></g><g class="bfst0" id="bfLayer_5"><path class="bfst1" d="M255 27C129.1 27 27 129.1 27 255s102.1 228 228 228 228-102.1 228-228S380.9 27 255 27zm-46.4 119.8c34 0 61.6 27.6 61.6 61.6S242.6 270 208.6 270 147 242.4 147 208.4s27.6-61.6 61.6-61.6zm99.5 212.3c0 19.7-16.1 35.9-35.9 35.9H144.9c-19.7 0-35.9-16.1-35.9-35.9v-75.9c0-19.7 16.1-35.9 35.9-35.9h3c12.5 20.4 35 34 60.7 34 25.7 0 48.2-13.6 60.7-34h3c19.7 0 35.9 16.1 35.9 35.9v75.9zm70.3-153.2V257h-23.9v-51.1h-51.1V182h51.1v-51h23.9v51.1h51.1V206h-51.1z"/></g><g class="bfst0" id="bfLayer_6"><path class="bfst1" d="M256 28C130.1 28 28 130.1 28 256s102.1 228 228 228 228-102.1 228-228S381.9 28 256 28zm-46.4 119.8c34 0 61.6 27.6 61.6 61.6S243.6 271 209.6 271 148 243.4 148 209.4s27.6-61.6 61.6-61.6zm99.5 212.3c0 19.7-16.1 35.9-35.9 35.9H145.9c-19.7 0-35.9-16.1-35.9-35.9v-75.9c0-19.7 16.1-35.9 35.9-35.9h3c12.5 20.4 35 34 60.7 34 25.7 0 48.2-13.6 60.7-34h3c19.7 0 35.9 16.1 35.9 35.9v75.9zM305 207v-24h122v24H305z"/></g><g class="bfst0" id="bfLayer_7"><path class="bfst1" d="M256 28C130.1 28 28 130.1 28 256s102.1 228 228 228 228-102.1 228-228S381.9 28 256 28zm-46.4 119.8c34 0 61.6 27.6 61.6 61.6S243.6 271 209.6 271 148 243.4 148 209.4s27.6-61.6 61.6-61.6zm99.5 212.3c0 19.7-16.1 35.9-35.9 35.9H145.9c-19.7 0-35.9-16.1-35.9-35.9v-75.9c0-19.7 16.1-35.9 35.9-35.9h3c12.5 20.4 35 34 60.7 34 25.7 0 48.2-13.6 60.7-34h3c19.7 0 35.9 16.1 35.9 35.9v75.9zm59.7-120.9l-17 17-17-17-41-41 17-17 41 41 69.3-69.3 17 17-69.3 69.3z"/></g><path class="bfst3" d="M256 28C130.1 28 28 130.1 28 256s102.1 228 228 228 228-102.1 228-228S381.9 28 256 28zm84.7 75c25.8 0 46.7 20.9 46.7 46.7 0 25.8-20.9 46.7-46.7 46.7-25.8 0-46.7-20.9-46.7-46.7 0-25.8 20.9-46.7 46.7-46.7zm-38.1 166.7c0 25.8-20.9 46.7-46.7 46.7-25.8 0-46.7-20.9-46.7-46.7 0-25.8 20.9-46.7 46.7-46.7 25.8 0 46.7 20.9 46.7 46.7zM171.3 103c25.8 0 46.7 20.9 46.7 46.7 0 25.8-20.9 46.7-46.7 46.7-25.8 0-46.7-20.9-46.7-46.7 0-25.8 20.9-46.7 46.7-46.7zM95.9 263.8v-57.5c0-14.9 12.2-27.2 27.2-27.2h2.3c9.5 15.5 26.5 25.8 46 25.8s36.5-10.3 46-25.8h2.3c14.9 0 27.2 12.2 27.2 27.2v11c-25.2 4.3-44.4 26.2-44.4 52.4 0 7.6 1.6 14.8 4.5 21.3h-84c-14.9 0-27.1-12.2-27.1-27.2zm235.5 118c0 14.9-12.2 27.2-27.2 27.2h-96.5c-14.9 0-27.2-12.2-27.2-27.2v-57.5c0-14.9 12.2-27.2 27.2-27.2h2.3c9.5 15.5 26.5 25.8 46 25.8s36.5-10.3 46-25.8h2.3c14.9 0 27.2 12.2 27.2 27.2v57.5zm84.7-118c0 14.9-12.2 27.2-27.2 27.2h-83.8c2.9-6.5 4.5-13.7 4.5-21.3 0-26.3-19.2-48.1-44.4-52.4v-11c0-14.9 12.2-27.2 27.2-27.2h2.3c9.5 15.5 26.5 25.8 46 25.8s36.5-10.3 46-25.8h2.3c14.9 0 27.2 12.2 27.2 27.2v57.5z" id="bfLayer_8"/></symbol><symbol viewBox="0 0 16 16" id="home"><path fill-rule="evenodd" d="M16 9l-3-3V2h-2v2L8 1 0 9h2l1 5c0 .55.45 1 1 1h8c.55 0 1-.45 1-1l1-5h2zm-4 5H9v-4H7v4H4L2.81 7.69 8 2.5l5.19 5.19L12 14z"/></symbol><symbol viewBox="0 0 24 24" id="loader"><title>loader</title><path d="M12 24C5.373 24 0 18.627 0 12S5.373 0 12 0s12 5.373 12 12-5.373 12-12 12zm0-4a8 8 0 1 0 0-16 8 8 0 0 0 0 16z" opacity=".23"/><path d="M24 12c0-6.627-5.373-12-12-12a2 2 0 1 0 0 4 8 8 0 0 1 8 8 2 2 0 1 0 4 0z"/></symbol><symbol viewBox="0 0 32 32" id="lock"><title/><path d="M16 21.915v2.594a.5.5 0 0 0 1 0v-2.594a1.5 1.5 0 1 0-1 0zm-1 .585v1.998a1.5 1.5 0 0 0 3 0V22.5a2.5 2.5 0 1 0-3 0zM9 14v-3.5a7.5 7.5 0 1 1 15 0V14c1.66.005 3 1.35 3 3.01v9.98A3.002 3.002 0 0 1 23.991 30H9.01A3.008 3.008 0 0 1 6 26.99v-9.98A3.002 3.002 0 0 1 9 14zm1 0v-3.507A6.497 6.497 0 0 1 16.5 4c3.583 0 6.5 2.907 6.5 6.493V14h-1v-3.49A5.509 5.509 0 0 0 16.5 5a5.501 5.501 0 0 0-5.5 5.51V14h-1zm2 0v-3.5C12 8.01 14.015 6 16.5 6c2.48 0 4.5 2.015 4.5 4.5V14h-9zm-3.003 1A2.001 2.001 0 0 0 7 17.006v9.988A2 2 0 0 0 8.997 29h15.006A2.001 2.001 0 0 0 26 26.994v-9.988A2 2 0 0 0 24.003 15H8.997z" fill="#929292" fill-rule="evenodd"/></symbol><symbol viewBox="0 0 480 120" id="logo"><title>Adya Logo</title><path d="M297.535 115.373V54.638L262.4 7.051a3.168 3.168 0 1 1 5.098-3.763l35.753 48.426c.403.545.62 1.204.62 1.882v55.037l9.956-8.251V53.596c0-.669.212-1.32.605-1.861l35.15-48.426a3.168 3.168 0 0 1 5.127 3.722l-34.545 47.593v47.247c0 .943-.42 1.838-1.147 2.44l-16.293 13.5c-2.065 1.712-5.19.243-5.19-2.438zM162.214 8.338v103.414a3.168 3.168 0 0 1-6.337 0V5.17a3.168 3.168 0 0 1 3.168-3.168h32.586c6.495 0 18.777 3.729 28.477 10.288 14.626 9.89 23.343 25.13 23.343 46.17 0 21.04-8.717 36.282-23.343 46.172-9.7 6.559-21.982 10.288-28.477 10.288h-16.066a3.168 3.168 0 0 1-3.168-3.168V8.338h-10.183zm288.275 104.816l-40.636-82.33-41.494 82.353a3.168 3.168 0 0 1-5.658-2.85L407.054 22.3c1.176-2.334 4.513-2.32 5.67.023l42.576 86.26h14.353L417.588 6.61a3.168 3.168 0 1 1 5.643-2.88l54.419 106.58c1.077 2.108-.454 4.609-2.821 4.609H453.33a3.168 3.168 0 0 1-2.84-1.766zm-360.36 0l-40.637-82.33-41.494 82.353a3.168 3.168 0 0 1-5.658-2.85L46.692 22.3c1.176-2.334 4.514-2.32 5.67.023l42.576 86.26h14.354L57.227 6.61a3.168 3.168 0 1 1 5.643-2.88l54.418 106.582c1.076 2.108-.455 4.609-2.822 4.609H92.97a3.168 3.168 0 0 1-2.84-1.766zm88.604-4.57h12.898c5.235 0 16.28-3.354 24.928-9.2 12.94-8.752 20.556-22.066 20.556-40.923 0-18.858-7.615-32.172-20.556-40.923-8.648-5.847-19.693-9.2-24.928-9.2h-12.898v100.246z"/></symbol><symbol viewBox="0 0 14 16" id="pencil"><path d="M0 12v3h3l8-8-3-3-8 8zm3 2H1v-2h1v1h1v1zm10.3-9.3L12 6 9 3l1.3-1.3a.996.996 0 0 1 1.41 0l1.59 1.59c.39.39.39 1.02 0 1.41z"/></symbol><symbol viewBox="0 0 12 16" id="person"><path fill-rule="evenodd" d="M12 14.002a.998.998 0 0 1-.998.998H1.001A1 1 0 0 1 0 13.999V13c0-2.633 4-4 4-4s.229-.409 0-1c-.841-.62-.944-1.59-1-4 .173-2.413 1.867-3 3-3s2.827.586 3 3c-.056 2.41-.159 3.38-1 4-.229.59 0 1 0 1s4 1.367 4 4v1.002z"/></symbol><symbol viewBox="0 0 12 16" id="person-active"><path fill-rule="evenodd" d="M12 14.002a.998.998 0 0 1-.998.998H1.001A1 1 0 0 1 0 13.999V13c0-2.633 4-4 4-4s.229-.409 0-1c-.841-.62-.944-1.59-1-4 .173-2.413 1.867-3 3-3s2.827.586 3 3c-.056 2.41-.159 3.38-1 4-.229.59 0 1 0 1s4 1.367 4 4v1.002z"/></symbol><symbol fill="#A5902F" viewBox="0 0 12 16" id="person-r"><path fill-rule="evenodd" d="M12 14.002a.998.998 0 0 1-.998.998H1.001A1 1 0 0 1 0 13.999V13c0-2.633 4-4 4-4s.229-.409 0-1c-.841-.62-.944-1.59-1-4 .173-2.413 1.867-3 3-3s2.827.586 3 3c-.056 2.41-.159 3.38-1 4-.229.59 0 1 0 1s4 1.367 4 4v1.002z"/></symbol><symbol fill="#499E53" viewBox="0 0 12 16" id="person-r-w"><path fill-rule="evenodd" d="M12 14.002a.998.998 0 0 1-.998.998H1.001A1 1 0 0 1 0 13.999V13c0-2.633 4-4 4-4s.229-.409 0-1c-.841-.62-.944-1.59-1-4 .173-2.413 1.867-3 3-3s2.827.586 3 3c-.056 2.41-.159 3.38-1 4-.229.59 0 1 0 1s4 1.367 4 4v1.002z"/></symbol><symbol viewBox="0 0 16 16" id="search"><path fill-rule="evenodd" d="M15.7 13.3l-3.81-3.83A5.93 5.93 0 0 0 13 6c0-3.31-2.69-6-6-6S1 2.69 1 6s2.69 6 6 6c1.3 0 2.48-.41 3.47-1.11l3.83 3.81c.19.2.45.3.7.3.25 0 .52-.09.7-.3a.996.996 0 0 0 0-1.41v.01zM7 10.7c-2.59 0-4.7-2.11-4.7-4.7 0-2.59 2.11-4.7 4.7-4.7 2.59 0 4.7 2.11 4.7 4.7 0 2.59-2.11 4.7-4.7 4.7z"/></symbol><symbol viewBox="0 0 14 16" id="shield"><path fill-rule="evenodd" d="M7 0L0 2v6.02C0 12.69 5.31 16 7 16c1.69 0 7-3.31 7-7.98V2L7 0zM5 11l1.14-2.8a.568.568 0 0 0-.25-.59C5.33 7.25 5 6.66 5 6c0-1.09.89-2 1.98-2C8.06 4 9 4.91 9 6c0 .66-.33 1.25-.89 1.61-.19.13-.3.36-.25.59L9 11H5z"/></symbol><symbol viewBox="0 0 12 16" id="trashcan"><path d="M11 2H9c0-.55-.45-1-1-1H5c-.55 0-1 .45-1 1H2c-.55 0-1 .45-1 1v1c0 .55.45 1 1 1v9c0 .55.45 1 1 1h7c.55 0 1-.45 1-1V5c.55 0 1-.45 1-1V3c0-.55-.45-1-1-1zm-1 12H3V5h1v8h1V5h1v8h1V5h1v8h1V5h1v9zm1-10H2V3h9v1z"/></symbol><symbol viewBox="0 0 12 16" id="triangle-down"><path fill-rule="evenodd" d="M0 5l6 6 6-6z"/></symbol><symbol viewBox="0 0 6 16" id="triangle-left"><path fill-rule="evenodd" d="M6 2L0 8l6 6z"/></symbol><symbol viewBox="0 0 6 16" id="triangle-right"><path fill-rule="evenodd" d="M0 14l6-6-6-6z"/></symbol><symbol viewBox="0 0 12 16" id="triangle-up"><path fill-rule="evenodd" d="M12 11L6 5l-6 6z"/></symbol><symbol viewBox="0 0 32 32" id="unlock"><title/><path d="M24 9.5v-1a7.5 7.5 0 1 0-15 0V16c-1.658.005-3 1.34-3 3.01v9.98A3.008 3.008 0 0 0 9.009 32H23.99A3.002 3.002 0 0 0 27 28.99v-9.98c0-1.66-1.34-3.005-3-3.01H12.027a4.538 4.538 0 0 1-.027-.5v-7C12 6.01 14.015 4 16.5 4 18.98 4 21 6.014 21 8.5v4c0 .828.666 1.5 1.5 1.5.828 0 1.5-.674 1.5-1.5v-3zm-1-1.007C23 4.907 20.083 2 16.5 2 12.91 2 10 4.908 10 8.493v7.014c0 .166.006.33.019.493H11V8.51A5.501 5.501 0 0 1 16.5 3C19.531 3 22 5.466 22 8.51v3.992c0 .275.232.498.5.498.276 0 .5-.215.5-.49V8.493zm-7 15.422v2.594a.5.5 0 0 0 1 0v-2.594a1.5 1.5 0 1 0-1 0zm-1 .585v1.998a1.5 1.5 0 0 0 3 0V24.5a2.5 2.5 0 1 0-3 0zM8.997 17A2.001 2.001 0 0 0 7 19.006v9.988A2 2 0 0 0 8.997 31h15.006A2.001 2.001 0 0 0 26 28.994v-9.988A2 2 0 0 0 24.003 17H8.997z" fill="#929292" fill-rule="evenodd"/></symbol><symbol viewBox="0 0 100 125" id="windows"><path d="M19.2 74.9l60 20c1.6.5 3.3-.7 3.3-2.4v-85c0-1.7-1.7-2.9-3.3-2.4l-60 20c-1 .3-1.7 1.3-1.7 2.4v45c0 1.1.7 2 1.7 2.4zm3.3-23.6H45v26.9l-22.5-7.5V51.3zm25 27.7V51.3h30V89l-30-10zm30-30.2h-30V21l30-10v37.8zM45 21.8v26.9H22.5V29.3L45 21.8z"/></symbol><symbol viewBox="0 0 12 16" id="x"><path fill-rule="evenodd" d="M7.48 8l3.75 3.75-1.48 1.48L6 9.48l-3.75 3.75-1.48-1.48L4.52 8 .77 4.25l1.48-1.48L6 6.52l3.75-3.75 1.48 1.48z"/></symbol></svg>